<?xml version="1.0" standalone="no"?>
<!DOCTYPE svg PUBLIC "-//W3C//DTD SVG 20010904//EN"
 "http://www.w3.org/TR/2001/REC-SVG-20010904/DTD/svg10.dtd">
<svg version="1.0" xmlns="http://www.w3.org/2000/svg"
 width="920.000000pt" height="500.000000pt" viewBox="0 0 920.000000 500.000000"
 preserveAspectRatio="xMidYMid meet">

<g transform="translate(0.000000,500.000000) scale(0.100000,-0.100000)"
fill="#d3d3d3" stroke="none">
<path d="M4257 3802 c-10 -10 -17 -24 -17 -31 0 -9 150 -531 296 -1032 4 -14
-32 -17 -301 -28 -167 -7 -319 -16 -337 -22 -40 -11 -30 -23 -151 183 l-92
159 -99 -3 c-78 -2 -101 -6 -109 -19 -8 -13 8 -74 66 -252 42 -129 77 -246 77
-259 0 -14 -34 -129 -75 -255 -41 -127 -75 -238 -75 -247 0 -27 37 -37 127
-34 l88 3 102 174 c56 95 104 175 106 178 3 2 24 -1 48 -6 24 -6 174 -15 334
-21 159 -6 291 -13 293 -15 2 -1 -65 -238 -149 -525 -128 -441 -150 -526 -140
-546 11 -24 11 -24 169 -24 l158 0 288 535 c158 294 291 537 295 539 4 3 131
0 284 -6 324 -11 356 -7 434 65 64 59 87 108 88 187 0 85 -39 160 -109 207
-78 53 -101 56 -415 47 l-284 -9 -19 30 c-10 17 -141 258 -291 537 l-272 508
-151 0 c-134 0 -153 -2 -167 -18z"/>
</g>
</svg>
